<svg width="114" height="114" viewBox="0 0 114 114" fill="none" xmlns="http://www.w3.org/2000/svg">
<path d="M30.7469 42.1738C25.9161 37.3802 25.886 29.578 30.6797 24.7472C35.4734 19.9165 43.2755 19.8864 48.1063 24.6801C52.9371 29.4737 52.9672 37.2759 48.1735 42.1067L39.4938 50.8536L30.7469 42.1738Z" fill="#008CBE"/>
<path d="M34.3161 91.3283C25.8573 82.8695 25.8573 69.1549 34.3161 60.6961L68.3541 26.6581C72.5835 22.4287 79.4408 22.4287 83.6702 26.6581C87.8997 30.8875 87.8997 37.7448 83.6702 41.9742L34.3161 91.3283Z" fill="#3AC5F8"/>
<path d="M51 81.3555L70.8507 61.3511C75.4275 56.7389 82.8766 56.7102 87.4888 61.2869C92.101 65.8637 92.1297 73.3128 87.553 77.925L84.2762 81.2272C75.1226 90.4516 60.2244 90.509 51 81.3555Z" fill="#3AC5F8"/>
</svg>
