<svg width="393" height="870" viewBox="0 0 393 870" fill="none" xmlns="http://www.w3.org/2000/svg">
<g clip-path="url(#clip0_415_1442)">
<rect width="393" height="870" fill="#FBF5E7"/>
<path d="M226.416 296.773C220.718 285.754 234.398 277.156 241.95 274.235L184.007 234.299C183.965 242.396 180.799 258.24 168.473 256.837C153.066 255.083 144.055 248.872 137.532 277.621C132.315 300.621 140.473 318.803 139.671 332.287L167.575 351.519C179.891 345.971 198.368 346.147 218.004 333.085C242.55 316.758 233.538 310.547 226.416 296.773Z" fill="#9FB069"/>
<path d="M326.478 162.99C273.939 152.709 274.428 107.071 281.24 85.5374L200.65 144.796C223.236 144.713 266.944 157.852 261.094 211.067C256.153 256.012 259.188 278.567 267.188 295.819C275.188 313.072 304.596 365.809 389.078 353.264L396.965 363.989L431.938 338.273L424.051 327.548C461.214 250.648 419.642 206.855 405.559 194.075C391.477 181.295 370.852 171.673 326.478 162.99Z" fill="#FFE792"/>
<path d="M343.6 82.246C348.247 72.7708 361.753 72.7708 366.4 82.246C368.978 87.5039 374.818 90.3162 380.537 89.054C390.842 86.7792 399.263 97.3391 394.752 106.88C392.249 112.174 393.692 118.493 398.244 122.177C406.448 128.816 403.442 141.984 393.17 144.405C387.471 145.749 383.429 150.817 383.387 156.673C383.312 167.226 371.143 173.086 362.845 166.565C358.241 162.947 351.759 162.947 347.155 166.565C338.857 173.086 326.688 167.226 326.613 156.673C326.571 150.817 322.529 145.749 316.83 144.405C306.558 141.984 303.552 128.816 311.756 122.177C316.308 118.493 317.751 112.174 315.248 106.88C310.737 97.3391 319.158 86.7792 329.463 89.054C335.182 90.3162 341.022 87.5039 343.6 82.246Z" fill="#B9CCEC"/>
<rect width="49" height="49" transform="matrix(-0.346685 0.937982 0.937982 0.346685 -5.01245 163)" fill="#F7BBDD"/>
</g>
<defs>
<clipPath id="clip0_415_1442">
<rect width="393" height="870" fill="white"/>
</clipPath>
</defs>
</svg>
